<?xml version="1.0"?>
<svg width="512" height="512" xmlns="http://www.w3.org/2000/svg" xmlns:svg="http://www.w3.org/2000/svg" version="1.1" xml:space="preserve">
 <g class="layer">
  <title>Layer 1</title>
  <g id="SVGRepo_bgCarrier" stroke-width="0"/>
  <g id="SVGRepo_tracerCarrier" stroke-linecap="round" stroke-linejoin="round"/>
  <g id="svg_43"/>
  <g id="svg_67">
   <g id="svg_68">
    <g id="svg_69">
     <path d="m443.9,497.33l-374.79,0l0,-66.13c0,-24.35 19.74,-44.09 44.09,-44.09l286.61,0c24.35,0 44.09,19.74 44.09,44.09l0,66.13z" fill="#9e0101" id="svg_70"/>
     <path d="m98.5,276.87l-84.51,0c-6.08,0 -11.03,4.94 -11.03,11.03l0,22.04c0,6.09 4.94,11.03 11.03,11.03l82.07,0l2.45,-44.09l-0.01,-0.01z" fill="#9e0101" id="svg_71"/>
     <path d="m414.5,276.87l2.45,44.09l82.07,0c6.08,0 11.03,-4.93 11.03,-11.03l0,-22.04c0,-6.08 -4.94,-11.03 -11.03,-11.03l-84.51,0l-0.01,0.01z" fill="#9e0101" id="svg_72"/>
    </g>
    <g id="svg_73" transform="matrix(1 0 0 1 0 0)">
     <path d="m69.1,431.2c0,-16.65 9.34,-30.98 22.96,-38.47l3.98,-71.76l-71.04,0l0,132.28c0,12.19 9.86,22.05 22.05,22.05l22.04,0l0,-44.09l0.01,-0.01z" fill="#000000" id="svg_74"/>
     <path d="m416.95,320.96l4,71.76c13.61,7.49 22.95,21.83 22.95,38.47l0,44.09l22.04,0c12.18,0 22.05,-9.86 22.05,-22.05l0,-132.28l-71.04,0l0,0.01z" fill="#000000" id="svg_75"/>
    </g>
    <path d="m113.2,387.11l286.61,0c7.7,0 14.83,2.15 21.13,5.62l-16.72,-300.95c-2.47,-44.58 -39.35,-79.46 -83.99,-79.46l-127.44,0c-44.64,0 -81.52,34.88 -83.99,79.46l-16.72,300.95c6.29,-3.47 13.42,-5.62 21.13,-5.62" fill="#ff0000" id="svg_76"/>
    <path d="m360.18,105.23c-5.82,0 -10.68,-4.53 -10.99,-10.41c-0.85,-15.35 -13.59,-27.38 -28.96,-27.38l-127.47,0c-15.37,0 -28.1,12.04 -28.95,27.38c-0.34,6.08 -5.47,10.65 -11.61,10.41c-6.08,-0.35 -10.74,-5.54 -10.4,-11.63c1.5,-27.03 23.88,-48.23 50.96,-48.23l127.47,0c27.07,0 49.45,21.19 50.96,48.23c0.34,6.08 -4.32,11.28 -10.39,11.63c-0.22,0 -0.42,0 -0.62,0" fill="#9e0101" id="svg_77"/>
    <g id="svg_78"/>
   </g>
  </g>
 </g>
</svg>